<svg width="36" height="36" viewBox="0 0 36 36" fill="none" xmlns="http://www.w3.org/2000/svg">
<path fill-rule="evenodd" clip-rule="evenodd" d="M5.625 4.5C5.32663 4.5 5.04048 4.61853 4.82951 4.82951C4.61853 5.04048 4.5 5.32663 4.5 5.625V30.375C4.5 30.6734 4.61853 30.9595 4.82951 31.1705C5.04048 31.3815 5.32663 31.5 5.625 31.5H30.375C30.6734 31.5 30.9595 31.3815 31.1705 31.1705C31.3815 30.9595 31.5 30.6734 31.5 30.375V5.625C31.5 5.32663 31.3815 5.04048 31.1705 4.82951C30.9595 4.61853 30.6734 4.5 30.375 4.5H5.625ZM9 13.5H22.5V11.25H9V13.5ZM24.75 13.5H27V11.25H24.75V13.5ZM22.5 19.125H9V16.875H22.5V19.125ZM24.75 19.125H27V16.875H24.75V19.125ZM22.5 24.75H9V22.5H22.5V24.75ZM24.75 24.75H27V22.5H24.75V24.75Z" fill="black"/>
</svg>
