<svg width="48" height="45" viewBox="0 0 48 45" fill="none" xmlns="http://www.w3.org/2000/svg">
<path d="M13.6299 14.2932C13.6299 15.6359 13.0965 16.9235 12.1471 17.8729C11.1977 18.8223 9.91004 19.3557 8.56738 19.3557C7.22472 19.3557 5.93706 18.8223 4.98766 17.8729C4.03825 16.9235 3.50488 15.6359 3.50488 14.2932C3.50488 12.9506 4.03825 11.6629 4.98766 10.7135C5.93706 9.76408 7.22472 9.23071 8.56738 9.23071C9.91004 9.23071 11.1977 9.76408 12.1471 10.7135C13.0965 11.6629 13.6299 12.9506 13.6299 14.2932ZM2.94238 20.4807C2.34565 20.4807 1.77335 20.7178 1.35139 21.1397C0.929436 21.5617 0.692383 22.134 0.692383 22.7307V32.8557C0.692383 33.8899 0.896076 34.9139 1.29183 35.8693C1.68759 36.8248 2.26766 37.6929 2.99892 38.4242C3.73018 39.1554 4.59831 39.7355 5.55375 40.1313C6.50919 40.527 7.53322 40.7307 8.56738 40.7307C9.60154 40.7307 10.6256 40.527 11.581 40.1313C12.5365 39.7355 13.4046 39.1554 14.1358 38.4242C14.8671 37.6929 15.4472 36.8248 15.8429 35.8693C16.2387 34.9139 16.4424 33.8899 16.4424 32.8557V22.7307C16.4424 22.134 16.2053 21.5617 15.7834 21.1397C15.3614 20.7178 14.7891 20.4807 14.1924 20.4807H2.94238ZM15.8799 14.2932C15.8799 15.7557 15.4524 17.117 14.7099 18.26C15.6391 18.368 16.4806 18.755 17.1489 19.34C17.2854 19.349 17.4249 19.3542 17.5674 19.3557C18.365 19.3557 19.1514 19.1671 19.8623 18.8055C20.5733 18.4438 21.1887 17.9193 21.6585 17.2746C22.1282 16.63 22.439 15.8835 22.5655 15.0959C22.6919 14.3084 22.6305 13.5021 22.3862 12.7427C22.1419 11.9834 21.7217 11.2926 21.1597 10.7265C20.5978 10.1604 19.91 9.73518 19.1525 9.48538C18.3949 9.23558 17.5891 9.16831 16.8006 9.28906C16.0122 9.40981 15.2634 9.71515 14.6154 10.1802C15.4119 11.3525 15.8799 12.7677 15.8799 14.2932ZM15.3174 40.4045C16.3794 39.4545 17.229 38.2911 17.8106 36.9903C18.3922 35.6895 18.6927 34.2806 18.6924 32.8557V22.7307C18.6924 21.9117 18.4719 21.1422 18.0894 20.4807H23.1924C23.7891 20.4807 24.3614 20.7178 24.7834 21.1397C25.2053 21.5617 25.4424 22.134 25.4424 22.7307V32.8557C25.4427 34.0824 25.1564 35.2922 24.6064 36.3887C24.0564 37.4851 23.2579 38.438 22.2744 39.1712C21.291 39.9044 20.1498 40.3977 18.942 40.6118C17.7341 40.826 16.4929 40.7549 15.3174 40.4045ZM24.8799 14.2932C24.8799 15.7557 24.4524 17.117 23.7099 18.26C24.6391 18.368 25.4806 18.755 26.1489 19.34C26.2854 19.349 26.4249 19.3542 26.5674 19.3557C27.365 19.3557 28.1514 19.1671 28.8623 18.8055C29.5733 18.4438 30.1887 17.9193 30.6585 17.2746C31.1282 16.63 31.439 15.8835 31.5655 15.0959C31.6919 14.3084 31.6305 13.5021 31.3862 12.7427C31.142 11.9834 30.7217 11.2926 30.1597 10.7265C29.5978 10.1604 28.91 9.73518 28.1525 9.48538C27.3949 9.23558 26.5891 9.16831 25.8006 9.28906C25.0122 9.40981 24.2634 9.71515 23.6154 10.1802C24.4119 11.3525 24.8799 12.7677 24.8799 14.2932ZM24.3174 40.4045C25.3794 39.4545 26.229 38.2911 26.8106 36.9903C27.3922 35.6895 27.6927 34.2806 27.6924 32.8557V22.7307C27.6924 21.9117 27.4719 21.1422 27.0894 20.4807H32.1924C32.7891 20.4807 33.3614 20.7178 33.7834 21.1397C34.2053 21.5617 34.4424 22.134 34.4424 22.7307V32.8557C34.4427 34.0824 34.1564 35.2922 33.6064 36.3887C33.0564 37.4851 32.2579 38.438 31.2744 39.1712C30.291 39.9044 29.1498 40.3977 27.942 40.6118C26.7341 40.826 25.4929 40.7549 24.3174 40.4045Z" fill="black"/>
</svg>
